<svg id="avatar" xmlns="http://www.w3.org/2000/svg" viewBox="0 0 48 48">
	<title>ic_avatar_dcard</title>
	<circle cx="24" cy="24" r="24" style="fill:#006aa6"/>
	<circle cx="29.15" cy="23.11" r="2.18" style="fill:#fff"/>
	<path
		d="M25.65,10.79H15.14V37.21H25.65a10.68,10.68,0,0,0,10.59-10.6V21.36A10.66,10.66,0,0,0,25.65,10.79Zm7.62,15.82a7.47,7.47,0,0,1,.08.8,1.58,1.58,0,0,1-1,.33,1.15,1.15,0,0,1-.37-.06,4.75,4.75,0,0,1-1.91-1.16l-1.84,1.86a7.62,7.62,0,0,0,4.22,2.2,8,8,0,0,1-6.85,4.13H17.79V23.81a19.39,19.39,0,0,0,13.15-7.75,5.9,5.9,0,0,1,1.52,1.61,7.72,7.72,0,0,1,.81,3.69Z"
		style="fill:#fff;fill-rule:evenodd"/>
</svg>