<svg id="avatar" xmlns="http://www.w3.org/2000/svg" viewBox="0 0 36 36">
	<title>ic_avatar_girl</title>
	<circle cx="18" cy="18" r="18" style="fill:#f48fb1"/>
	<path
		d="M25.71,18.7a14.59,14.59,0,0,0,.11-3,8.71,8.71,0,0,0-1.24-3.94l.79-.51a8.23,8.23,0,0,0-9.3-4.68c-5,.93-6.92,4.88-6.65,8.05S7.43,28,7.43,28l6,1.56c-.09.1-.16.2-.24.3h0l-.2.31,0,.06c-.05.09-.1.18-.14.27l-.05.09-.06.16a2,2,0,0,0-.08.22s0,.09-.05.14a1.8,1.8,0,0,1,0,.19.31.31,0,0,1,0,.08l-1.18,3.33a17.95,17.95,0,0,0,9.52,1.05l-.09-2.5A4.21,4.21,0,0,0,19,28.81c.05-1,0-2.73.51-2.82A7.36,7.36,0,0,0,25,21.27a1.33,1.33,0,0,0,.86.12,1.36,1.36,0,0,0-.19-2.69Z"
		style="fill:#880e4f"/>
</svg>